<?xml version="1.0" encoding="utf-8"?>
<!DOCTYPE svg PUBLIC "-//W3C//DTD SVG 20010904//EN" "http://www.w3.org/TR/2001/REC-SVG-20010904/DTD/svg10.dtd">
<svg version="1.0" xmlns="http://www.w3.org/2000/svg" width="34pt" height="34pt" viewBox="0 0 34 34" style="" preserveAspectRatio="xMidYMid meet">
<g fill="#FFFFFFFF" stroke="#FFFFFFFF">
<path d="M 1.070 9.250 L 1.139 17.500 2.568 13.000 C 3.353 10.525 4.785 7.535 5.748 6.356 C 7.730 3.932 12.800 1.896 11.461 4.063 C 10.903 4.966 11.150 5.156 12.304 4.714 C 14.719 3.787 15.382 5.725 13.072 6.962 C 9.152 9.059 7.538 21.147 10.934 22.965 C 14.915 25.095 17.874 24.237 19.436 20.500 C 20.240 18.575 21.371 17.000 21.949 17.000 C 23.795 17.000 23.081 14.249 20.411 11.077 C 18.987 9.385 18.142 8.000 18.534 8.000 C 18.925 8.000 18.718 7.365 18.074 6.589 C 17.227 5.569 17.209 4.989 18.008 4.495 C 20.234 3.119 24.094 5.147 27.070 9.256 C 29.494 12.602 30.069 14.329 29.865 17.646 C 29.715 20.094 30.183 22.516 30.996 23.495 C 33.081 26.008 31.030 28.500 26.877 28.500 C 25.020 28.500 22.544 29.048 21.375 29.718 C 17.493 31.944 11.554 32.338 8.180 30.593 C 4.845 28.869 3.091 26.318 1.929 21.500 C 1.404 19.327 1.176 20.499 1.102 25.750 L 1.000 33.000 17.000 33.000 L 33.000 33.000 33.000 17.000 L 33.000 1.000 17.000 1.000 L 1.000 1.000 1.070 9.250 "/></g>
<g fill="#E1997CFF" stroke="#E1997CFF">
<path d="M 19.149 4.908 C 18.191 5.500 18.258 5.970 19.442 6.952 C 20.287 7.653 20.763 8.575 20.500 9.000 C 20.237 9.425 20.692 10.329 21.511 11.009 C 23.096 12.325 23.572 17.608 22.155 18.167 C 21.691 18.350 20.675 19.850 19.898 21.500 C 18.194 25.119 14.114 25.960 10.320 23.474 C 7.962 21.929 7.820 21.418 8.439 16.745 C 9.148 11.404 11.392 6.085 13.026 5.875 C 13.562 5.806 12.623 5.694 10.939 5.625 C 6.274 5.434 2.000 11.680 2.000 18.689 C 2.000 22.051 5.597 28.714 8.149 30.080 C 10.928 31.567 19.519 30.734 21.760 28.759 C 22.857 27.792 24.648 27.403 26.607 27.706 C 30.341 28.282 31.946 25.703 29.522 23.024 C 28.682 22.097 28.233 21.100 28.523 20.810 C 28.813 20.520 29.111 18.669 29.185 16.696 C 29.394 11.143 22.383 2.909 19.149 4.908 M 7.000 12.000 C 7.000 12.550 6.550 13.000 6.000 13.000 C 5.450 13.000 5.000 12.550 5.000 12.000 C 5.000 11.450 5.450 11.000 6.000 11.000 C 6.550 11.000 7.000 11.450 7.000 12.000 "/></g>
<g fill="#E6C2B4FF" stroke="#E6C2B4FF">
<path d="M 8.150 18.693 C 7.976 22.392 10.850 25.000 15.100 25.000 C 18.076 25.000 19.466 23.680 20.367 20.000 C 20.802 18.227 20.546 18.444 19.487 20.750 C 18.320 23.290 17.381 24.000 15.188 24.000 C 11.418 24.000 9.210 22.125 8.712 18.500 L 8.300 15.500 8.150 18.693 "/></g>
<g fill="#E6C2B4FF" stroke="#E6C2B4FF">
<path d="M 7.218 5.750 C 5.670 7.263 5.325 7.765 6.452 6.866 C 8.229 5.449 12.101 5.566 12.169 7.039 C 12.181 7.293 12.380 7.194 12.612 6.819 C 12.843 6.445 12.568 5.851 12.000 5.500 C 11.432 5.149 11.226 4.443 11.543 3.931 C 12.781 1.927 9.882 3.146 7.218 5.750 "/></g>
<g fill="#E6C2B4FF" stroke="#E6C2B4FF">
<path d="M 17.890 6.250 C 18.635 7.213 18.925 8.000 18.534 8.000 C 18.142 8.000 18.987 9.385 20.411 11.077 C 21.835 12.769 23.000 13.724 23.000 13.199 C 23.000 12.674 22.330 11.689 21.511 11.009 C 20.692 10.329 20.231 9.435 20.487 9.020 C 20.743 8.606 19.959 7.420 18.744 6.384 C 16.906 4.816 16.762 4.794 17.890 6.250 "/></g>
<g fill="#E6C2B4FF" stroke="#E6C2B4FF">
<path d="M 29.311 22.605 C 31.247 24.951 30.705 27.654 28.165 28.327 C 26.655 28.727 26.659 28.779 28.215 28.884 C 29.158 28.948 30.441 28.045 31.065 26.878 C 32.018 25.097 31.829 24.414 29.888 22.628 C 27.590 20.515 27.586 20.515 29.311 22.605 "/></g>
<g fill="#E6C2B4FF" stroke="#E6C2B4FF">
<path d="M 2.068 22.300 C 2.030 22.739 2.788 24.462 3.750 26.127 C 5.453 29.072 5.454 29.051 3.818 25.327 C 2.892 23.222 2.105 21.860 2.068 22.300 "/></g>
<g fill="#E6C2B4FF" stroke="#E6C2B4FF">
<path d="M 21.872 28.702 C 20.580 30.305 20.644 30.305 22.973 28.702 C 24.332 27.766 24.950 27.000 24.345 27.000 C 23.740 27.000 22.627 27.766 21.872 28.702 "/></g>
<g fill="#E6C2B4FF" stroke="#E6C2B4FF">
<path d="M 25.000 7.000 L 27.000 9.000 25.000 7.000 L 23.000 5.000 25.000 7.000 "/></g>
</svg>
