<?xml version="1.0" encoding="utf-8"?>
<!DOCTYPE svg PUBLIC "-//W3C//DTD SVG 20010904//EN" "http://www.w3.org/TR/2001/REC-SVG-20010904/DTD/svg10.dtd">
<svg version="1.0" xmlns="http://www.w3.org/2000/svg" width="50pt" height="50pt" viewBox="0 0 50 50" style="" preserveAspectRatio="xMidYMid meet">
<g fill="#333333FF" stroke="#333333FF">
<path d="M 24.000 8.347 C 24.000 9.139 24.651 10.036 25.446 10.341 C 26.960 10.922 26.863 13.302 24.911 23.377 C 24.311 26.475 24.317 28.677 24.927 29.412 C 25.455 30.048 26.025 33.254 26.194 36.535 C 26.500 42.498 26.501 42.500 29.844 42.820 C 31.976 43.025 33.877 42.516 35.094 41.415 C 36.142 40.466 37.027 39.872 37.060 40.095 C 37.093 40.318 37.068 35.888 37.005 30.250 L 36.889 20.000 32.890 20.000 L 28.890 20.000 29.195 15.250 L 29.500 10.500 33.813 10.189 C 40.691 9.694 38.431 7.548 30.670 7.204 C 25.397 6.971 24.000 7.210 24.000 8.347 M 33.790 31.250 C 33.527 38.737 33.315 39.500 31.500 39.500 C 29.685 39.500 29.473 38.737 29.210 31.250 L 28.919 23.000 31.500 23.000 L 34.081 23.000 33.790 31.250 "/></g>
<g fill="#333333FF" stroke="#333333FF">
<path d="M 17.638 8.500 C 17.322 9.325 15.886 10.000 14.448 10.000 C 11.291 10.000 11.613 12.200 14.883 12.972 C 17.928 13.691 17.818 15.233 14.609 16.819 L 11.940 18.138 12.220 30.319 C 12.580 45.965 14.396 46.625 14.783 31.250 C 15.011 22.157 15.347 20.000 16.533 20.000 C 17.737 20.000 18.000 22.059 18.000 31.500 C 18.000 38.500 18.391 43.000 19.000 43.000 C 19.606 43.000 20.000 38.655 20.000 31.965 C 20.000 23.141 20.351 20.393 21.750 18.253 C 22.713 16.782 22.934 15.926 22.243 16.352 C 21.469 16.829 20.740 16.487 20.347 15.462 C 19.987 14.525 20.298 13.434 21.058 12.964 C 22.189 12.265 22.185 11.715 21.035 9.565 C 19.473 6.647 18.470 6.332 17.638 8.500 "/></g>
<g fill="#333333FF" stroke="#333333FF">
<path d="M 35.220 1.747 L 47.941 2.059 48.253 14.780 L 48.565 27.500 48.783 14.250 L 49.000 1.000 35.750 1.217 L 22.500 1.435 35.220 1.747 "/></g>
<g fill="#33333373" stroke="#33333373">
<path d="M 34.498 2.733 L 47.000 3.060 47.232 15.530 L 47.464 28.000 47.482 15.250 L 47.500 2.500 34.748 2.453 L 21.997 2.407 34.498 2.733 "/></g>
<g fill="#31313115" stroke="#31313115">
<path d="M 11.218 28.905 L 11.000 41.310 8.750 39.445 C 7.397 38.322 7.607 38.759 9.278 40.540 L 12.056 43.500 11.746 30.000 L 11.437 16.500 11.218 28.905 "/></g>
<g fill="#31313115" stroke="#31313115">
<path d="M 21.311 31.000 C 21.303 41.424 21.361 41.798 21.936 35.000 C 22.284 30.875 22.961 26.868 23.439 26.095 C 24.015 25.165 23.941 24.918 23.219 25.364 C 22.541 25.784 21.977 24.803 21.725 22.769 C 21.502 20.971 21.316 24.675 21.311 31.000 "/></g>
<g fill="#31313115" stroke="#31313115">
<path d="M 15.997 31.252 C 15.724 37.716 15.852 43.003 16.282 43.002 C 16.712 43.001 16.936 37.713 16.779 31.250 L 16.495 19.500 15.997 31.252 "/></g>
<g fill="#2E2E2E1C" stroke="#2E2E2E1C">
<path d="M 20.639 19.694 C 20.288 20.046 20.086 25.321 20.192 31.417 L 20.383 42.500 20.831 30.778 C 21.077 24.330 20.991 19.343 20.639 19.694 "/></g>
<g fill="#2E2E2E1C" stroke="#2E2E2E1C">
<path d="M 15.142 32.000 C 14.957 38.325 15.092 42.793 15.442 41.929 C 15.791 41.065 15.942 35.890 15.777 30.429 L 15.477 20.500 15.142 32.000 "/></g>
<g fill="#33333373" stroke="#33333373">
<path d="M 25.093 35.844 L 25.685 42.500 25.843 36.309 C 25.929 32.904 25.663 29.909 25.250 29.653 C 24.838 29.397 24.767 32.183 25.093 35.844 "/></g>
<g fill="#31313115" stroke="#31313115">
<path d="M 21.500 11.750 C 21.541 15.361 21.725 15.900 22.264 14.000 C 23.209 10.667 23.187 7.000 22.222 7.000 C 21.794 7.000 21.469 9.138 21.500 11.750 "/></g>
<g fill="#31313115" stroke="#31313115">
<path d="M 29.406 18.225 C 29.547 18.926 31.512 19.752 33.773 20.059 C 36.033 20.367 37.657 20.255 37.382 19.809 C 37.107 19.364 35.371 19.000 33.524 19.000 C 31.678 19.000 29.938 18.539 29.658 17.975 C 29.379 17.411 29.265 17.524 29.406 18.225 "/></g>
<g fill="#31313115" stroke="#31313115">
<path d="M 11.318 11.500 C 11.442 12.728 12.385 13.623 13.760 13.820 C 14.992 13.995 16.068 14.558 16.150 15.070 C 16.233 15.581 16.345 15.438 16.400 14.750 C 16.455 14.063 15.515 13.360 14.311 13.189 C 13.108 13.017 11.896 12.117 11.619 11.189 C 11.256 9.973 11.172 10.061 11.318 11.500 "/></g>
<g fill="#2E2E2E1C" stroke="#2E2E2E1C">
<path d="M 29.618 10.809 C 29.343 11.255 31.004 11.311 33.309 10.935 L 37.500 10.250 33.809 10.125 C 31.779 10.056 29.893 10.364 29.618 10.809 "/></g>
<g fill="#33333373" stroke="#33333373">
<path d="M 40.923 40.338 C 40.881 40.427 40.691 41.326 40.499 42.336 C 40.166 44.097 40.232 44.100 42.110 42.400 C 43.722 40.942 43.797 40.587 42.535 40.402 C 41.691 40.278 40.966 40.250 40.923 40.338 "/></g>
<g fill="#33333373" stroke="#33333373">
<path d="M 7.664 42.181 C 9.314 44.005 9.500 44.032 9.500 42.450 C 9.500 41.483 8.674 40.569 7.664 40.421 C 5.882 40.160 5.882 40.212 7.664 42.181 "/></g>
<g fill="#33333373" stroke="#33333373">
<path d="M 7.664 7.819 C 5.882 9.788 5.882 9.840 7.664 9.579 C 8.674 9.431 9.500 8.517 9.500 7.550 C 9.500 5.968 9.314 5.995 7.664 7.819 "/></g>
<g fill="#333333FF" stroke="#333333FF">
<path d="M 34.605 45.171 C 34.887 45.627 34.566 46.000 33.892 46.000 C 33.218 46.000 32.928 46.261 33.248 46.581 C 33.567 46.901 34.878 46.600 36.161 45.914 L 38.494 44.665 36.293 44.503 C 35.083 44.414 34.323 44.714 34.605 45.171 "/></g>
<g fill="#333333FF" stroke="#333333FF">
<path d="M 46.000 33.892 C 46.000 34.566 45.627 34.887 45.171 34.605 C 44.714 34.323 44.414 35.083 44.503 36.293 L 44.665 38.494 45.914 36.161 C 46.600 34.878 46.901 33.567 46.581 33.248 C 46.261 32.928 46.000 33.218 46.000 33.892 "/></g>
<g fill="#333333FF" stroke="#333333FF">
<path d="M 13.441 45.448 C 14.509 46.301 15.859 46.982 16.441 46.960 C 17.024 46.938 16.150 46.239 14.500 45.408 C 11.777 44.035 11.679 44.038 13.441 45.448 "/></g>
<g fill="#333333FF" stroke="#333333FF">
<path d="M 41.500 41.410 L 39.500 43.567 41.500 41.410 L 43.500 39.253 41.500 41.410 "/></g>
<g fill="#333333FF" stroke="#333333FF">
<path d="M 8.000 41.000 L 10.500 43.500 8.000 41.000 L 5.500 38.500 8.000 41.000 "/></g>
<g fill="#333333FF" stroke="#333333FF">
<path d="M 3.040 33.559 C 3.018 34.141 3.699 35.491 4.552 36.559 C 5.962 38.321 5.965 38.223 4.592 35.500 C 3.761 33.850 3.062 32.976 3.040 33.559 "/></g>
<g fill="#333333FF" stroke="#333333FF">
<path d="M 4.169 13.921 C 3.437 15.159 3.045 16.378 3.297 16.631 C 3.550 16.883 4.149 15.870 4.628 14.380 C 5.466 11.776 5.448 11.758 4.169 13.921 "/></g>
<g fill="#333333FF" stroke="#333333FF">
<path d="M 8.500 8.410 L 6.500 10.567 8.500 8.410 L 10.500 6.253 8.500 8.410 "/></g>
<g fill="#333333FF" stroke="#333333FF">
<path d="M 13.441 4.552 C 11.679 5.962 11.777 5.965 14.500 4.592 C 16.150 3.761 17.024 3.062 16.441 3.040 C 15.859 3.018 14.509 3.699 13.441 4.552 "/></g>
<g fill="#2E2E2E1C" stroke="#2E2E2E1C">
<path d="M 38.211 42.763 C 37.538 42.987 37.242 43.582 37.553 44.085 C 38.406 45.466 39.850 45.182 39.629 43.678 C 39.522 42.950 38.884 42.539 38.211 42.763 "/></g>
<g fill="#2E2E2E1C" stroke="#2E2E2E1C">
<path d="M 10.333 43.595 C 10.333 45.170 11.589 45.474 12.435 44.105 C 12.740 43.612 12.391 42.980 11.661 42.700 C 10.931 42.420 10.333 42.823 10.333 43.595 "/></g>
<g fill="#2E2E2E1C" stroke="#2E2E2E1C">
<path d="M 42.763 38.211 C 42.539 38.884 42.950 39.522 43.678 39.629 C 45.182 39.850 45.466 38.406 44.085 37.553 C 43.582 37.242 42.987 37.538 42.763 38.211 "/></g>
<g fill="#2E2E2E1C" stroke="#2E2E2E1C">
<path d="M 5.682 37.652 C 4.529 38.804 4.924 39.834 6.433 39.613 C 7.285 39.488 7.562 38.909 7.115 38.186 C 6.702 37.517 6.057 37.277 5.682 37.652 "/></g>
<g fill="#2E2E2E1C" stroke="#2E2E2E1C">
<path d="M 47.625 27.837 C 47.138 28.603 47.193 29.593 47.754 30.154 C 48.393 30.793 48.689 30.329 48.605 28.817 C 48.511 27.140 48.241 26.869 47.625 27.837 "/></g>
<g fill="#2E2E2E1C" stroke="#2E2E2E1C">
<path d="M 5.000 11.029 C 5.000 12.474 6.805 13.086 7.237 11.789 C 7.461 11.116 7.050 10.478 6.322 10.371 C 5.595 10.264 5.000 10.561 5.000 11.029 "/></g>
<g fill="#2E2E2E1C" stroke="#2E2E2E1C">
<path d="M 23.000 9.429 C 23.000 10.293 23.707 11.000 24.571 11.000 C 26.000 11.000 26.000 10.857 24.571 9.429 C 23.143 8.000 23.000 8.000 23.000 9.429 "/></g>
<g fill="#2E2E2E1C" stroke="#2E2E2E1C">
<path d="M 10.371 6.322 C 10.478 7.050 11.116 7.461 11.789 7.237 C 12.462 7.013 12.758 6.418 12.447 5.915 C 11.594 4.534 10.150 4.818 10.371 6.322 "/></g>
<g fill="#31313115" stroke="#31313115">
<path d="M 40.500 40.410 L 38.500 42.567 40.500 40.410 L 42.500 38.253 40.500 40.410 "/></g>
<g fill="#31313115" stroke="#31313115">
<path d="M 9.500 9.410 L 7.500 11.567 9.500 9.410 L 11.500 7.253 9.500 9.410 "/></g>
<g fill="#33333373" stroke="#33333373">
<path d="M 29.636 23.780 C 29.371 24.208 30.248 24.511 31.584 24.453 C 32.920 24.394 33.710 24.044 33.340 23.673 C 32.426 22.759 30.228 22.822 29.636 23.780 "/></g>
<g fill="#2E2E2E1C" stroke="#2E2E2E1C">
<path d="M 28.000 47.912 C 28.000 48.413 28.685 48.723 29.522 48.600 C 30.358 48.477 30.733 48.067 30.355 47.688 C 29.374 46.707 28.000 46.837 28.000 47.912 "/></g>
<g fill="#2E2E2E1C" stroke="#2E2E2E1C">
<path d="M 19.645 47.688 C 19.267 48.067 19.642 48.477 20.478 48.600 C 21.315 48.723 22.000 48.413 22.000 47.912 C 22.000 46.837 20.626 46.707 19.645 47.688 "/></g>
<g fill="#2E2E2E1C" stroke="#2E2E2E1C">
<path d="M 1.400 29.522 C 1.523 30.358 1.933 30.733 2.312 30.355 C 3.293 29.374 3.163 28.000 2.088 28.000 C 1.587 28.000 1.277 28.685 1.400 29.522 "/></g>
<g fill="#2E2E2E1C" stroke="#2E2E2E1C">
<path d="M 1.333 20.544 C 1.333 21.345 1.708 22.000 2.167 22.000 C 3.247 22.000 3.247 20.270 2.167 19.603 C 1.708 19.320 1.333 19.743 1.333 20.544 "/></g>
<g fill="#2E2E2E1C" stroke="#2E2E2E1C">
<path d="M 19.603 2.167 C 19.886 2.625 20.541 3.000 21.059 3.000 C 21.577 3.000 22.000 2.625 22.000 2.167 C 22.000 1.708 21.345 1.333 20.544 1.333 C 19.743 1.333 19.320 1.708 19.603 2.167 "/></g>
<g fill="#31313115" stroke="#31313115">
<path d="M 35.920 41.500 C 35.618 42.050 35.406 43.175 35.450 44.000 C 35.495 44.825 35.778 45.050 36.080 44.500 C 36.382 43.950 36.594 42.825 36.550 42.000 C 36.505 41.175 36.222 40.950 35.920 41.500 "/></g>
<g fill="#2E2E2E1C" stroke="#2E2E2E1C">
<path d="M 36.378 40.378 L 35.500 41.256 36.378 40.378 L 37.256 39.500 36.378 40.378 "/></g>
<g fill="#2E2E2E1C" stroke="#2E2E2E1C">
<path d="M 2.800 18.200 C 3.733 19.133 4.000 19.133 4.000 18.200 C 4.000 17.540 3.460 17.000 2.800 17.000 C 1.867 17.000 1.867 17.267 2.800 18.200 "/></g>
<g fill="#2E2E2E1C" stroke="#2E2E2E1C">
<path d="M 20.030 14.691 C 20.014 15.346 20.507 16.195 21.126 16.578 C 21.955 17.090 21.963 16.776 21.157 15.387 C 20.554 14.349 20.047 14.036 20.030 14.691 "/></g>
<g fill="#2E2E2E1C" stroke="#2E2E2E1C">
<path d="M 17.000 2.800 C 17.000 3.460 17.540 4.000 18.200 4.000 C 19.133 4.000 19.133 3.733 18.200 2.800 C 17.267 1.867 17.000 1.867 17.000 2.800 "/></g>
<g fill="#31313115" stroke="#31313115">
<path d="M 35.000 47.047 C 34.010 47.656 33.925 47.975 34.750 47.985 C 35.438 47.993 36.113 47.578 36.250 47.062 C 36.404 46.485 35.924 46.479 35.000 47.047 "/></g>
<g fill="#31313115" stroke="#31313115">
<path d="M 13.422 46.874 C 13.805 47.493 14.654 47.986 15.309 47.970 C 15.964 47.953 15.651 47.446 14.613 46.843 C 13.224 46.037 12.910 46.045 13.422 46.874 "/></g>
<g fill="#31313115" stroke="#31313115">
<path d="M 46.695 35.352 C 46.275 36.448 46.413 36.863 47.064 36.460 C 47.637 36.106 47.939 35.318 47.736 34.709 C 47.533 34.100 47.065 34.389 46.695 35.352 "/></g>
<g fill="#31313115" stroke="#31313115">
<path d="M 2.030 34.691 C 2.014 35.346 2.507 36.195 3.126 36.578 C 3.955 37.090 3.963 36.776 3.157 35.387 C 2.554 34.349 2.047 34.036 2.030 34.691 "/></g>
<g fill="#31313115" stroke="#31313115">
<path d="M 2.750 13.666 C 2.338 14.033 2.030 14.821 2.066 15.417 C 2.102 16.013 2.439 15.712 2.816 14.750 C 3.192 13.787 3.163 13.300 2.750 13.666 "/></g>
<g fill="#31313115" stroke="#31313115">
<path d="M 13.422 3.126 C 12.910 3.955 13.224 3.963 14.613 3.157 C 15.651 2.554 15.964 2.047 15.309 2.030 C 14.654 2.014 13.805 2.507 13.422 3.126 "/></g>
</svg>
